<?xml version="1.0" encoding="UTF-8"?>
<svg xmlns="http://www.w3.org/2000/svg" xmlns:xlink="http://www.w3.org/1999/xlink" width="16px" height="16px" viewBox="0 0 16 16" version="1.1">
<g id="surface1">
<path style=" stroke:none;fill-rule:nonzero;fill:rgb(32.54902%,44.313725%,53.333333%);fill-opacity:1;" d="M 11.988281 4.339844 C 12.070312 4.335938 12.152344 4.34375 12.234375 4.347656 C 12.316406 4.347656 12.390625 4.359375 12.464844 4.367188 C 12.539062 4.375 12.605469 4.386719 12.667969 4.402344 C 12.734375 4.414062 12.789062 4.425781 12.84375 4.4375 C 12.894531 4.453125 12.9375 4.464844 12.972656 4.476562 C 13.046875 4.496094 13.085938 4.507812 13.085938 4.507812 C 13.085938 4.507812 13.046875 4.492188 12.976562 4.460938 C 12.941406 4.445312 12.902344 4.429688 12.851562 4.40625 C 12.800781 4.390625 12.746094 4.371094 12.683594 4.351562 C 12.621094 4.328125 12.550781 4.308594 12.480469 4.292969 C 12.40625 4.273438 12.328125 4.253906 12.246094 4.242188 C 12.164062 4.226562 12.082031 4.210938 11.996094 4.207031 C 11.910156 4.195312 11.820312 4.1875 11.730469 4.183594 C 11.671875 4.179688 11.613281 4.183594 11.554688 4.183594 C 11.507812 3.777344 11.363281 3.402344 11.148438 3.089844 C 11.148438 3.089844 11.335938 1.800781 10.890625 0.558594 C 10.824219 0.375 9.742188 2.144531 9.742188 2.144531 C 9.597656 2.113281 9.449219 2.097656 9.296875 2.097656 C 9.027344 2.097656 8.769531 2.148438 8.527344 2.238281 C 8.527344 2.238281 7.667969 0.679688 7.5 1.078125 C 6.996094 2.289062 7.121094 3.773438 7.121094 3.773438 C 7.054688 3.992188 7.019531 4.226562 7.019531 4.46875 C 7.019531 4.472656 7.019531 4.476562 7.019531 4.480469 C 6.9375 4.484375 6.855469 4.492188 6.777344 4.5 C 6.695312 4.507812 6.617188 4.523438 6.539062 4.539062 C 6.464844 4.550781 6.390625 4.570312 6.324219 4.589844 C 6.253906 4.605469 6.191406 4.625 6.132812 4.648438 C 6.015625 4.683594 5.921875 4.726562 5.859375 4.757812 C 5.792969 4.789062 5.757812 4.804688 5.757812 4.804688 C 5.757812 4.804688 5.796875 4.792969 5.863281 4.773438 C 5.929688 4.75 6.027344 4.71875 6.148438 4.699219 C 6.207031 4.683594 6.269531 4.671875 6.339844 4.664062 C 6.40625 4.65625 6.476562 4.644531 6.554688 4.644531 C 6.628906 4.636719 6.707031 4.632812 6.785156 4.636719 C 6.863281 4.636719 6.941406 4.640625 7.019531 4.648438 C 7.023438 4.648438 7.027344 4.648438 7.03125 4.648438 C 7.035156 4.707031 7.039062 4.769531 7.050781 4.828125 C 7.042969 4.828125 7.039062 4.828125 7.035156 4.832031 C 6.871094 4.878906 6.714844 4.9375 6.574219 5.003906 C 6.503906 5.035156 6.4375 5.070312 6.375 5.105469 C 6.3125 5.136719 6.253906 5.171875 6.203125 5.207031 C 6.097656 5.273438 6.015625 5.335938 5.960938 5.382812 C 5.902344 5.425781 5.871094 5.449219 5.871094 5.449219 C 5.871094 5.449219 5.90625 5.429688 5.96875 5.394531 C 6.027344 5.355469 6.117188 5.304688 6.226562 5.253906 C 6.28125 5.226562 6.34375 5.199219 6.410156 5.175781 C 6.472656 5.152344 6.539062 5.121094 6.613281 5.101562 C 6.757812 5.058594 6.914062 5.019531 7.070312 4.992188 C 7.074219 4.992188 7.074219 4.992188 7.078125 4.992188 C 7.113281 5.152344 7.164062 5.304688 7.226562 5.449219 C 5.6875 5.863281 4.507812 7.386719 4.339844 9.265625 C 3.476562 9.742188 2.617188 10.6875 3.011719 12.554688 C 3.273438 13.796875 5.808594 15.417969 7.035156 15.453125 C 7.417969 15.464844 7.488281 15.078125 7.441406 14.917969 C 7.121094 13.820312 4.917969 14.070312 3.9375 12.125 C 3.613281 11.484375 3.902344 10.785156 4.34375 10.195312 C 4.535156 12.328125 6.027344 13.996094 7.871094 14.105469 C 8.101562 14.34375 8.425781 14.496094 8.792969 14.496094 C 9.285156 14.496094 9.710938 14.222656 9.914062 13.828125 C 10.101562 13.933594 10.316406 13.996094 10.546875 13.996094 C 11.238281 13.996094 11.796875 13.464844 11.796875 12.808594 C 11.796875 12.496094 11.667969 12.207031 11.453125 11.996094 C 11.476562 11.820312 11.492188 11.632812 11.503906 11.441406 C 11.691406 10.914062 11.796875 10.335938 11.796875 9.726562 C 11.796875 8.421875 11.3125 7.253906 10.542969 6.449219 C 11.113281 6.0625 11.503906 5.414062 11.566406 4.667969 C 11.609375 4.679688 11.648438 4.6875 11.691406 4.699219 C 11.773438 4.71875 11.855469 4.742188 11.933594 4.769531 C 12.015625 4.796875 12.09375 4.824219 12.167969 4.855469 C 12.242188 4.886719 12.3125 4.917969 12.378906 4.953125 C 12.445312 4.984375 12.507812 5.015625 12.5625 5.050781 C 12.617188 5.082031 12.667969 5.113281 12.710938 5.140625 C 12.753906 5.167969 12.792969 5.195312 12.824219 5.21875 C 12.886719 5.261719 12.921875 5.285156 12.921875 5.285156 C 12.921875 5.285156 12.890625 5.257812 12.832031 5.207031 C 12.804688 5.179688 12.769531 5.148438 12.730469 5.113281 C 12.6875 5.082031 12.640625 5.046875 12.589844 5.003906 C 12.539062 4.964844 12.480469 4.925781 12.414062 4.882812 C 12.351562 4.84375 12.285156 4.800781 12.210938 4.761719 C 12.140625 4.722656 12.066406 4.679688 11.984375 4.644531 C 11.90625 4.605469 11.828125 4.570312 11.742188 4.539062 C 11.6875 4.515625 11.632812 4.5 11.574219 4.480469 C 11.574219 4.476562 11.574219 4.472656 11.574219 4.46875 C 11.574219 4.433594 11.574219 4.402344 11.570312 4.367188 C 11.625 4.363281 11.679688 4.355469 11.734375 4.351562 C 11.820312 4.34375 11.902344 4.339844 11.988281 4.339844 Z M 11.988281 4.339844 "/>
</g>
</svg>
